<svg baseProfile="full" height="770.8295501454494" id="graph" version="1.1" viewBox="0,0,800.0000000000002,770.8295501454494" width="800.0000000000002" xmlns="http://www.w3.org/2000/svg" xmlns:ev="http://www.w3.org/2001/xml-events" xmlns:xlink="http://www.w3.org/1999/xlink"><defs><filter id="brightness"><feComponentTransfer in="SourceGraphic"><feFuncR slope="0.6" type="linear" /><feFuncG slope="0.6" type="linear" /><feFuncB slope="0.6" type="linear" /></feComponentTransfer></filter><filter id="darker"><feComponentTransfer in="SourceGraphic"><feFuncR slope="0.4" type="linear" /><feFuncG slope="0.4" type="linear" /><feFuncB slope="0.4" type="linear" /></feComponentTransfer></filter><marker id="markers.arrow" markerHeight="12.5" markerWidth="12.5" refX="152" refY="3" viewBox="0.0,0.0,157.21,92.25"><polygon class="black" points="0,30.75 157.21,0 104.81,92.25 63.79,54.82 0,30.75" /></marker><g id="0-4"><path class="conector" d="M350.00000000000006 565.4857697909977 350.00000000000006 536.1509440260759 100.0 389.4768152014675 405.00000000000006 210.5343780354452 440.00000000000006 190.0 465.00000000000006 175.33258711753916" fill="none" marker-end="url(#markers.arrow)" opacity="0.8" stroke="black" stroke-width="1" /><path class="conector_h conn-5b43d57606f9e50f2f36acd0" d="M350.00000000000006 565.4857697909977 350.00000000000006 536.1509440260759 100.0 389.4768152014675 405.00000000000006 210.5343780354452 440.00000000000006 190.0 465.00000000000006 175.33258711753916" fill="none" opacity="0" stroke="black" stroke-width="18" /><text display="none" x="0" y="0">graphQL</text></g><g id="0-1"><path class="conector" d="M350.00000000000006 565.4857697909977 385.00000000000006 544.9513917555525 410.00000000000006 530.2839788730917" fill="none" marker-end="url(#markers.arrow)" opacity="0.8" stroke="black" stroke-width="1" /><path class="conector_h conn-5b43d57606f9e50f2f36acd0" d="M350.00000000000006 565.4857697909977 385.00000000000006 544.9513917555525 410.00000000000006 530.2839788730917" fill="none" opacity="0" stroke="black" stroke-width="18" /><text display="none" x="0" y="0">rest</text></g><g id="0-1"><path class="conector" d="M350.00000000000006 565.4857697909977 400.00000000000006 565.4857697909976 660.0000000000001 706.2929334626217 685.0000000000001 691.6255205801608" fill="none" marker-end="url(#markers.arrow)" opacity="0.8" stroke="black" stroke-width="1" /><path class="conector_h conn-5b43d57606f9e50f2f36acd0" d="M350.00000000000006 565.4857697909977 400.00000000000006 565.4857697909976 660.0000000000001 706.2929334626217 685.0000000000001 691.6255205801608" fill="none" opacity="0" stroke="black" stroke-width="18" /><text display="none" x="0" y="0">rest</text></g><g id="3-4"><path class="conector" d="M625.0000000000001 339.6076114011006 625.0000000000001 310.2727856361789 440.00000000000006 190.0 465.00000000000006 175.33258711753916" fill="none" marker-end="url(#markers.arrow)" opacity="0.8" stroke="black" stroke-width="1" /><path class="conector_h conn-5b43f3e206f9e50f2f36acd5" d="M625.0000000000001 339.6076114011006 625.0000000000001 310.2727856361789 440.00000000000006 190.0 465.00000000000006 175.33258711753916" fill="none" opacity="0" stroke="black" stroke-width="18" /><text display="none" x="0" y="0">rest</text></g><g id="4-5"><path class="conector" d="M515.0 145.9977613526175 550.0000000000001 125.46338331717232 575.0000000000001 110.79597043471148" fill="none" marker-end="url(#markers.arrow)" opacity="0.8" stroke="black" stroke-width="1" /><path class="conector_h conn-5b3ec43306f9e50f2f36acc7" d="M515.0 145.9977613526175 550.0000000000001 125.46338331717232 575.0000000000001 110.79597043471148" fill="none" opacity="0" stroke="black" stroke-width="18" /><text display="none" x="0" y="0">rest</text></g><g id="2-3"><path class="conector" d="M625.0000000000001 468.6808447667561 675.0000000000001 468.6808447667561 770.0000000000001 512.6830834141385 795.0000000000001 498.0156705316777" fill="none" marker-end="url(#markers.arrow)" opacity="0.8" stroke="black" stroke-width="1" /><path class="conector_h conn-5b43e53306f9e50f2f36acd2" d="M625.0000000000001 468.6808447667561 675.0000000000001 468.6808447667561 770.0000000000001 512.6830834141385 795.0000000000001 498.0156705316777" fill="none" opacity="0" stroke="black" stroke-width="18" /><text display="none" x="0" y="0">rest</text></g><g id="2-3"><path class="conector" d="M625.0000000000001 468.6808447667561 660.0000000000001 448.14646673131085 685.0000000000001 433.47905384885" fill="none" marker-end="url(#markers.arrow)" opacity="0.8" stroke="black" stroke-width="1" /><path class="conector_h conn-5b43e53306f9e50f2f36acd2" d="M625.0000000000001 468.6808447667561 660.0000000000001 448.14646673131085 685.0000000000001 433.47905384885" fill="none" opacity="0" stroke="black" stroke-width="18" /><text display="none" x="0" y="0">rest</text></g><g id="2-3"><path class="conector" d="M625.0000000000001 468.6808447667561 625.0000000000001 439.34601900183435 550.0000000000001 383.6098500484831 575.0000000000001 368.9424371660223" fill="none" marker-end="url(#markers.arrow)" opacity="0.8" stroke="black" stroke-width="1" /><path class="conector_h conn-5b43e53306f9e50f2f36acd2" d="M625.0000000000001 468.6808447667561 625.0000000000001 439.34601900183435 550.0000000000001 383.6098500484831 575.0000000000001 368.9424371660223" fill="none" opacity="0" stroke="black" stroke-width="18" /><text display="none" x="0" y="0">rest</text></g><g id="2-3"><path class="conector" d="M405.00000000000006 339.6076114011006 440.00000000000006 319.0732333656554 465.00000000000006 304.4058204831946" fill="none" marker-end="url(#markers.arrow)" opacity="0.8" stroke="black" stroke-width="1" /><path class="conector_h conn-5b2c3c41fbff0d12e0f4c3f9" d="M405.00000000000006 339.6076114011006 440.00000000000006 319.0732333656554 465.00000000000006 304.4058204831946" fill="none" opacity="0" stroke="black" stroke-width="18" /><text display="none" x="0" y="0">amqp</text></g><g id="1-2"><path class="conector" d="M460.00000000000006 500.9491531081699 510.00000000000006 500.9491531081699 550.0000000000001 512.6830834141387 575.0000000000001 498.01567053167776" fill="none" marker-end="url(#markers.arrow)" opacity="0.8" stroke="black" stroke-width="1" /><path class="conector_h conn-5b43f85506f9e50f2f36acd6" d="M460.00000000000006 500.9491531081699 510.00000000000006 500.9491531081699 550.0000000000001 512.6830834141387 575.0000000000001 498.01567053167776" fill="none" opacity="0" stroke="black" stroke-width="18" /><text display="none" x="0" y="0">rest</text></g><g id="1-2"><path class="conector" d="M460.00000000000006 500.9491531081699 460.00000000000006 471.61432734324825 330.00000000000006 383.6098500484831 355.00000000000006 368.9424371660223" fill="none" marker-end="url(#markers.arrow)" opacity="0.8" stroke="black" stroke-width="1" /><path class="conector_h conn-5b43f85506f9e50f2f36acd6" d="M460.00000000000006 500.9491531081699 460.00000000000006 471.61432734324825 330.00000000000006 383.6098500484831 355.00000000000006 368.9424371660223" fill="none" opacity="0" stroke="black" stroke-width="18" /><text display="none" x="0" y="0">rest</text></g><symbol id="grid.base" preserveAspectRatio="xMidYMax meet" viewBox="0.0,0.0,266.4,156.32"><polygon class="gdarker" points="133.2,0 0,78.16 133.2,156.32 266.4,78.16" /></symbol><style type="text/css"><![CDATA[.dark{fill: currentColor;}.darker{filter: url(#brightness)}.2darker{filter: url(#darker)}text{font-family:Arial, Helvetica, sans-serif; fill: #672064;}.white{fill:#fff;}.gray{fill:#d1d1d1;}.gdarker{fill:#bababa}.black{fill:#000}.lgray{fill:#ccc},.gray2{fill:#6d6d6d}]]></style><symbol id="application.small" preserveAspectRatio="xMidYMax meet" viewBox="0.0,0.0,266.4,259.12"><polygon class="dark" points="133.2,259.12 0,180.96 0,85.52 133.2,163.68 133.2,259.12" /><polygon class="light" points="133.2,259.12 266.4,180.96 266.4,85.52 133.2,163.68 133.2,259.12" /><polygon class="darker" points="133.2,7.36 0,85.52 133.2,163.68 266.4,85.52 133.2,7.36" /><path class="white" d="M51.15,163.52l70,41V169.35l-70-41Zm47.62-.61,16.85,9.89v22.9l-16.85-9.89ZM77.4,150.37,94,160.11V183l-16.6-9.73ZM56.36,138l16.34,9.62v22.91l-16.34-9.6Z" /><polygon class="dark" points="133.2,99.81 80.39,68.82 80.39,30.99 133.2,61.97 133.2,99.81" /><polygon class="light" points="133.2,99.81 186.01,68.82 186.01,30.99 133.2,61.97 133.2,99.81" /><polygon class="darker" points="133.2,0 80.39,30.99 133.2,61.97 186.01,30.99 133.2,0" /></symbol><style type="text/css"><![CDATA[.premise{color: #5b5b5b;fill: #8e8e8e;}]]></style><symbol id="boundaries_box.front" preserveAspectRatio="xMidYMax meet" viewBox="0.0,0.0,265.58,292.78"><polygon class="gdarker" fill-opacity="0.3" points="132.79,0 0,77.92 132.79,155.84 265.58,77.92 132.79,0" /><polygon class="lgray" fill-opacity="0.2" points="132.79,155.84 132.79,292.78 0,214.86 0,77.92 132.79,155.84" /><polygon class="lgray" fill-opacity="0.2" points="265.58,77.92 265.58,214.86 132.79,292.78 132.79,155.84 265.58,77.92" /></symbol><style type="text/css"><![CDATA[.dark{fill: currentColor;}.darker{filter: url(#brightness)}.2darker{filter: url(#darker)}text{font-family:Arial, Helvetica, sans-serif; fill: #672064;}.white{fill:#fff;}.gray{fill:#d1d1d1;}.gdarker{fill:#bababa}.black{fill:#000}.lgray{fill:#ccc},.gray2{fill:#6d6d6d}]]></style><g id="tool-5b3ec43306f9e50f2f36acc7"><text x="0" y="0"><tspan class="name">app1</tspan><tspan class="dc">premise</tspan><tspan class="family">Application</tspan></text></g><symbol id="database.medium" preserveAspectRatio="xMidYMax meet" viewBox="0.0,0.0,401.82,427.9"><polygon class="dark" points="209.95,427.9 26.89,320.49 26.89,115.56 209.95,222.98 209.95,427.9" /><polygon class="light" points="209.95,427.9 393.01,320.49 393.01,115.56 209.95,222.98 209.95,427.9" /><polygon class="darker" points="209.95,8.14 26.89,115.56 209.95,222.98 393.01,115.56 209.95,8.14" /><path class="white" d="M285.61,228.58l-64.7,37.93V234l64.7-38Zm-44-.57L226,237.15v21.18l15.57-9.14Zm19.76-11.59-15.34,9V246.6l15.34-9ZM280.79,205l-15.11,8.89V235l15.11-8.87Z" /><polygon class="dark" points="43.23,380.68 0,355.31 0,316.36 43.23,341.73 43.23,380.68" /><polygon class="light" points="43.23,380.68 86.46,355.31 86.46,316.36 43.23,341.73 43.23,380.68" /><polygon class="darker" points="43.23,291 0,316.36 43.23,341.73 86.46,316.36 43.23,291" /><path class="white" d="M5.78,342.54l30.56,17.92V345.09L5.78,327.16Zm20.79-.27,7.36,4.32v10l-7.36-4.31Zm-9.33-5.47,7.25,4.25v10l-7.25-4.25Zm-9.19-5.41,7.14,4.2v10l-7.14-4.2Z" /><polygon class="dark" points="368.53,217.16 335.24,197.63 335.24,167.63 368.53,187.17 368.53,217.16" /><polygon class="light" points="368.53,217.16 401.82,197.63 401.82,167.63 368.53,187.17 368.53,217.16" /><polygon class="darker" points="368.53,148.1 335.24,167.63 368.53,187.17 401.82,167.63 368.53,148.1" /><polygon class="dark" points="204.15,99.73 156.07,71.52 156.07,28.21 204.15,56.42 204.15,99.73" /><polygon class="light" points="204.15,99.73 252.22,71.52 252.22,28.21 204.15,56.42 204.15,99.73" /><polygon class="darker" points="204.15,0 156.07,28.21 204.15,56.42 252.22,28.21 204.15,0" /><polygon class="dark" points="43.23,328.48 0,303.11 0,264.16 43.23,289.53 43.23,328.48" /><polygon class="light" points="43.23,328.48 86.46,303.11 86.46,264.16 43.23,289.53 43.23,328.48" /><polygon class="darker" points="43.23,238.79 0,264.16 43.23,289.53 86.46,264.16 43.23,238.79" /><path class="white" d="M5.78,290.34l30.56,17.91V292.88L5.78,275Zm20.79-.27,7.36,4.32v10l-7.36-4.32Zm-9.33-5.48,7.25,4.26v10l-7.25-4.25Zm-9.19-5.4,7.14,4.2v10L8.05,289.2Z" /></symbol><g id="tool-5b2c6ead61de951c159d44d0"><text x="0" y="0"><tspan class="name">mysql1</tspan><tspan class="dc">premise</tspan><tspan class="family">Database</tspan></text></g><symbol id="broker.medium" preserveAspectRatio="xMidYMax meet" viewBox="0.0,0.0,569.36,538.36"><polygon class="dark" points="105.41,424.17 0.2,362.48 0,157.16 105.41,263.85 105.41,424.17" /><polygon class="light" points="104.36,424.17 372.18,267.01 372.18,106.69 104.36,263.85 104.36,424.17" /><polygon class="darker" points="267.82,0 0,157.16 105.41,263.87 373.24,106.71 267.82,0" /><path class="white" d="M196.38,272.89l-64.7,37.93V278.28l64.7-38Zm-44-.57-15.58,9.15v21.18l15.58-9.15Zm19.75-11.59-15.34,9v21.18l15.34-9Zm19.46-11.45-15.11,8.9v21.18l15.11-8.88Z" /><path class="white" d="M201.46,360.82l-64.69,37.94V366.21l64.69-38Zm-44-.56-15.58,9.14v21.18l15.58-9.14Zm19.76-11.6-15.34,9v21.18l15.34-9Zm19.46-11.45-15.11,8.9v21.18l15.11-8.87Z" /><path class="white" d="M291,314.87l-64.7,37.93V280.26l64.7-38Zm-4.82,1.6V251.26l-54.79,32.19v65.18Z" /><polygon class="gray" points="404.93,284.66 137.1,441.81 198.14,478.04 465.96,320.88 404.93,284.66" /><polygon class="dark" points="301.53,538.36 240.5,502.13 240.5,441.81 301.53,478.04 301.53,538.36" /><polygon class="light" points="301.53,538.36 569.36,381.2 569.36,320.88 301.53,478.04 301.53,538.36" /><polygon class="darker" points="508.32,284.66 240.5,441.81 301.53,478.04 569.36,320.88 508.32,284.66" /><polygon class="dark" points="504.81,341.78 467.08,319.64 467.08,285.65 504.81,307.79 504.81,341.78" /><polygon class="light" points="504.81,341.78 542.53,319.64 542.53,285.65 504.81,307.79 504.81,341.78" /><polygon class="darker" points="504.81,263.51 467.08,285.65 504.81,307.79 542.53,285.65 504.81,263.51" /><path class="white" d="M472.12,308.49l26.67,15.64V310.72l-26.67-15.65Zm18.15-.23,6.42,3.77v8.73L490.27,317Zm-8.15-4.78,6.33,3.71v8.73l-6.33-3.71Zm-8-4.72,6.23,3.67v8.73l-6.23-3.66Z" /></symbol><g id="tool-5b2c3c41fbff0d12e0f4c3f9"><text x="0" y="0"><tspan class="name">brokers</tspan><tspan class="dc">premise</tspan><tspan class="family">Broker</tspan></text></g><g id="tool-5b29c216cdff0b10395b3053"><text x="0" y="0"><tspan class="name">app3s</tspan><tspan class="dc">premise</tspan><tspan class="family">Application</tspan></text></g><symbol id="application.large" preserveAspectRatio="xMidYMax meet" viewBox="0.0,0.0,266.4,413.53"><polygon class="dark" points="133.2,413.53 0,335.37 0,99.92 133.2,178.08 133.2,413.53" /><polygon class="light" points="133.2,413.53 266.4,335.37 266.4,99.92 133.2,178.08 133.2,413.53" /><polygon class="darker" points="133.2,21.76 0,99.92 133.2,178.08 266.4,99.92 133.2,21.76" /><path class="white" d="M15.42,164.09l66.66,39.09V169.64L15.42,130.52Zm45.37-.58,16.05,9.42v21.82l-16.05-9.42ZM40.43,151.56l15.81,9.28v21.82l-15.81-9.28Zm-20-11.8L36,148.93v21.82l-15.57-9.14Z" /><polygon class="dark" points="129.04,114.34 76.84,83.71 76.84,30.63 129.04,61.26 129.04,114.34" /><polygon class="light" points="129.04,114.34 181.25,83.71 181.25,30.63 129.04,61.26 129.04,114.34" /><polygon class="darker" points="129.04,0 76.84,30.63 129.04,61.26 181.25,30.63 129.04,0" /><path class="white" d="M145.8,58.39l30.94-18.14V55.81L145.8,74Zm21.06.27,7.45-4.37V44.16l-7.45,4.37Zm-9.45,5.55,7.34-4.31V49.77l-7.34,4.31Zm-9.3,5.47,7.22-4.25V55.3l-7.22,4.24Z" /></symbol><style type="text/css"><![CDATA[.openstack{color: #ce081f;fill: #af071a;}]]></style><symbol id="application.micro" preserveAspectRatio="xMidYMax meet" viewBox="0.0,0.0,266.4,251.76"><polygon class="dark" points="133.2,251.76 0,173.6 0,78.16 133.2,156.32 133.2,251.76" /><polygon class="light" points="133.2,251.76 266.4,173.6 266.4,78.16 133.2,156.32 133.2,251.76" /><polygon class="darker" points="133.2,0 0,78.16 133.2,156.32 266.4,78.16 133.2,0" /><path class="white" d="M257.42,130l-70,41V135.8l70-41.05Zm-47.62-.61L193,139.25v22.91l16.84-9.89Zm21.37-12.54-16.59,9.74v22.9l16.59-9.74Zm21-12.38-16.34,9.62V137l16.34-9.59Z" /></symbol><style type="text/css"><![CDATA[.aws{color: #f58536;fill: #c4692c;}]]></style><g id="tool-5b43d57606f9e50f2f36acd0"><text x="0" y="0"><tspan class="name">appLb1</tspan><tspan class="dc">Aws, Openstack</tspan><tspan class="family">Application</tspan><tspan class="servers">2</tspan></text></g><g id="tool-5b43f85506f9e50f2f36acd6"><text x="0" y="0"><tspan class="name">bucha1</tspan><tspan class="dc">premise</tspan><tspan class="env">Production</tspan><tspan class="family">Application</tspan></text></g><symbol id="default" preserveAspectRatio="xMidYMax meet" viewBox="0.0,0.0,266.4,291.76"><polygon class="dark" points="133.2,291.76 0,213.6 0,78.16 133.2,156.32 133.2,291.76" /><polygon class="light" points="133.2,291.76 266.4,213.6 266.4,78.16 133.2,156.32 133.2,291.76" /><polygon class="darker" points="133.2,0 0,78.16 133.2,156.32 266.4,78.16 133.2,0" /><path class="white" d="M14.24,142.62l75.41,44.22V148.9L14.24,104.65ZM65.56,142l18.16,10.65v24.69L65.56,166.65Zm-23-13.52L60.42,139v24.68L42.53,153.14ZM19.85,115.1l17.61,10.38v24.68L19.85,139.82Z" /><polygon class="dark" points="103.31,111.32 50.51,80.33 50.5,42.49 103.31,73.48 103.31,111.32" /><polygon class="light" points="103.31,111.32 156.12,80.33 156.12,42.49 103.31,73.48 103.31,111.32" /><polygon class="darker" points="103.31,11.51 50.5,42.49 103.31,73.48 156.12,42.49 103.31,11.51" /></symbol><g id="tool-5b43e53306f9e50f2f36acd2"><text x="0" y="0"><tspan class="name">lb3</tspan><tspan class="dc">premise</tspan><tspan class="family">Loadbalance</tspan></text></g><g id="tool-5b43f3e206f9e50f2f36acd5"><text x="0" y="0"><tspan class="name">appLB3-3</tspan><tspan class="dc">premise</tspan><tspan class="family">Application</tspan></text></g><g id="tool-5b43e54206f9e50f2f36acd4"><text x="0" y="0"><tspan class="name">appLB3-2</tspan><tspan class="dc">premise</tspan><tspan class="family">Application</tspan></text></g><g id="tool-5b43e53f06f9e50f2f36acd3"><text x="0" y="0"><tspan class="name">appLB3-1</tspan><tspan class="dc">premise</tspan><tspan class="family">Application</tspan></text></g><g id="tool-5b46c82006f9e50f2f36acd9"><text x="0" y="0"><tspan class="name">cc-broker2</tspan><tspan class="dc">premise</tspan><tspan class="family">Application</tspan></text></g></defs><rect fill="#eaeaea" height="770.8295501454494" width="800.0000000000002" x="0" y="0" /><g id="0-4"><path class="conector" d="M350.00000000000006 565.4857697909977 350.00000000000006 536.1509440260759 100.0 389.4768152014675 405.00000000000006 210.5343780354452 440.00000000000006 190.0 465.00000000000006 175.33258711753916" fill="none" marker-end="url(#markers.arrow)" opacity="0.8" stroke="black" stroke-width="1" /><path class="conector_h conn-5b43d57606f9e50f2f36acd0" d="M350.00000000000006 565.4857697909977 350.00000000000006 536.1509440260759 100.0 389.4768152014675 405.00000000000006 210.5343780354452 440.00000000000006 190.0 465.00000000000006 175.33258711753916" fill="none" opacity="0" stroke="black" stroke-width="18" /><text display="none" x="0" y="0">graphQL</text></g><g id="0-1"><path class="conector" d="M350.00000000000006 565.4857697909977 385.00000000000006 544.9513917555525 410.00000000000006 530.2839788730917" fill="none" marker-end="url(#markers.arrow)" opacity="0.8" stroke="black" stroke-width="1" /><path class="conector_h conn-5b43d57606f9e50f2f36acd0" d="M350.00000000000006 565.4857697909977 385.00000000000006 544.9513917555525 410.00000000000006 530.2839788730917" fill="none" opacity="0" stroke="black" stroke-width="18" /><text display="none" x="0" y="0">rest</text></g><g id="0-1"><path class="conector" d="M350.00000000000006 565.4857697909977 400.00000000000006 565.4857697909976 660.0000000000001 706.2929334626217 685.0000000000001 691.6255205801608" fill="none" marker-end="url(#markers.arrow)" opacity="0.8" stroke="black" stroke-width="1" /><path class="conector_h conn-5b43d57606f9e50f2f36acd0" d="M350.00000000000006 565.4857697909977 400.00000000000006 565.4857697909976 660.0000000000001 706.2929334626217 685.0000000000001 691.6255205801608" fill="none" opacity="0" stroke="black" stroke-width="18" /><text display="none" x="0" y="0">rest</text></g><g id="3-4"><path class="conector" d="M625.0000000000001 339.6076114011006 625.0000000000001 310.2727856361789 440.00000000000006 190.0 465.00000000000006 175.33258711753916" fill="none" marker-end="url(#markers.arrow)" opacity="0.8" stroke="black" stroke-width="1" /><path class="conector_h conn-5b43f3e206f9e50f2f36acd5" d="M625.0000000000001 339.6076114011006 625.0000000000001 310.2727856361789 440.00000000000006 190.0 465.00000000000006 175.33258711753916" fill="none" opacity="0" stroke="black" stroke-width="18" /><text display="none" x="0" y="0">rest</text></g><g id="4-5"><path class="conector" d="M515.0 145.9977613526175 550.0000000000001 125.46338331717232 575.0000000000001 110.79597043471148" fill="none" marker-end="url(#markers.arrow)" opacity="0.8" stroke="black" stroke-width="1" /><path class="conector_h conn-5b3ec43306f9e50f2f36acc7" d="M515.0 145.9977613526175 550.0000000000001 125.46338331717232 575.0000000000001 110.79597043471148" fill="none" opacity="0" stroke="black" stroke-width="18" /><text display="none" x="0" y="0">rest</text></g><g id="2-3"><path class="conector" d="M625.0000000000001 468.6808447667561 675.0000000000001 468.6808447667561 770.0000000000001 512.6830834141385 795.0000000000001 498.0156705316777" fill="none" marker-end="url(#markers.arrow)" opacity="0.8" stroke="black" stroke-width="1" /><path class="conector_h conn-5b43e53306f9e50f2f36acd2" d="M625.0000000000001 468.6808447667561 675.0000000000001 468.6808447667561 770.0000000000001 512.6830834141385 795.0000000000001 498.0156705316777" fill="none" opacity="0" stroke="black" stroke-width="18" /><text display="none" x="0" y="0">rest</text></g><g id="2-3"><path class="conector" d="M625.0000000000001 468.6808447667561 660.0000000000001 448.14646673131085 685.0000000000001 433.47905384885" fill="none" marker-end="url(#markers.arrow)" opacity="0.8" stroke="black" stroke-width="1" /><path class="conector_h conn-5b43e53306f9e50f2f36acd2" d="M625.0000000000001 468.6808447667561 660.0000000000001 448.14646673131085 685.0000000000001 433.47905384885" fill="none" opacity="0" stroke="black" stroke-width="18" /><text display="none" x="0" y="0">rest</text></g><g id="2-3"><path class="conector" d="M625.0000000000001 468.6808447667561 625.0000000000001 439.34601900183435 550.0000000000001 383.6098500484831 575.0000000000001 368.9424371660223" fill="none" marker-end="url(#markers.arrow)" opacity="0.8" stroke="black" stroke-width="1" /><path class="conector_h conn-5b43e53306f9e50f2f36acd2" d="M625.0000000000001 468.6808447667561 625.0000000000001 439.34601900183435 550.0000000000001 383.6098500484831 575.0000000000001 368.9424371660223" fill="none" opacity="0" stroke="black" stroke-width="18" /><text display="none" x="0" y="0">rest</text></g><g id="2-3"><path class="conector" d="M405.00000000000006 339.6076114011006 440.00000000000006 319.0732333656554 465.00000000000006 304.4058204831946" fill="none" marker-end="url(#markers.arrow)" opacity="0.8" stroke="black" stroke-width="1" /><path class="conector_h conn-5b2c3c41fbff0d12e0f4c3f9" d="M405.00000000000006 339.6076114011006 440.00000000000006 319.0732333656554 465.00000000000006 304.4058204831946" fill="none" opacity="0" stroke="black" stroke-width="18" /><text display="none" x="0" y="0">amqp</text></g><g id="1-2"><path class="conector" d="M460.00000000000006 500.9491531081699 510.00000000000006 500.9491531081699 550.0000000000001 512.6830834141387 575.0000000000001 498.01567053167776" fill="none" marker-end="url(#markers.arrow)" opacity="0.8" stroke="black" stroke-width="1" /><path class="conector_h conn-5b43f85506f9e50f2f36acd6" d="M460.00000000000006 500.9491531081699 510.00000000000006 500.9491531081699 550.0000000000001 512.6830834141387 575.0000000000001 498.01567053167776" fill="none" opacity="0" stroke="black" stroke-width="18" /><text display="none" x="0" y="0">rest</text></g><g id="1-2"><path class="conector" d="M460.00000000000006 500.9491531081699 460.00000000000006 471.61432734324825 330.00000000000006 383.6098500484831 355.00000000000006 368.9424371660223" fill="none" marker-end="url(#markers.arrow)" opacity="0.8" stroke="black" stroke-width="1" /><path class="conector_h conn-5b43f85506f9e50f2f36acd6" d="M460.00000000000006 500.9491531081699 460.00000000000006 471.61432734324825 330.00000000000006 383.6098500484831 355.00000000000006 368.9424371660223" fill="none" opacity="0" stroke="black" stroke-width="18" /><text display="none" x="0" y="0">rest</text></g><polyline fill="#ccc" fill-opacity="0.2" points="440.00000000000006,160.66517423507833 490.00000000000006,131.33034847015662 540.0,160.66517423507833 490.00000000000006,190.0" /><use class="default" fill-opacity="0.4" height="190.0" width="100" x="440.00000000000006" xlink:href="#grid.base" y="0.0" /><use class="premise" height="95.0" width="36.0" x="472.00000000000006" xlink:href="#application.small" y="76.22571151045013" /><use class="default boundaries" height="190.0" id="5b3ec43306f9e50f2f36acc7" width="100" x="440.00000000000006" xlink:href="#boundaries_box.front" y="0.0" /><text font-size="16.0" transform="translate(455.00000000000006, 0.0) skewY(-30.404) skewX(41.0) translate(-578.8600000000001, 224.2)" x="440.00000000000006" y="0.0">app1</text><polyline fill="#ccc" fill-opacity="0.2" points="550.0000000000001,96.12855755225063 600.0000000000001,66.79373178732894 650.0000000000001,96.12855755225063 600.0000000000001,125.46338331717232" /><use class="default" fill-opacity="0.4" height="190.0" width="100" x="550.0000000000001" xlink:href="#grid.base" y="-64.53661668282768" /><use class="premise" height="190.0" width="83.0" x="558.5000000000001" xlink:href="#database.medium" y="-69.52353706286436" /><use class="default boundaries" height="190.0" id="5b2c6ead61de951c159d44d0" width="100" x="550.0000000000001" xlink:href="#boundaries_box.front" y="-64.53661668282768" /><text font-size="16.0" transform="translate(565.0000000000001, -64.53661668282768) skewY(-30.404) skewX(41.0) translate(-696.5400000000001, 288.7366166828277)" x="550.0000000000001" y="-64.53661668282768">mysql1</text><polyline fill="#ccc" fill-opacity="0.2" points="330.00000000000006,354.27502428356144 380.00000000000006,324.94019851863976 430.00000000000006,354.27502428356144 380.00000000000006,383.6098500484831" /><use class="default" fill-opacity="0.4" height="190.0" width="100" x="330.00000000000006" xlink:href="#grid.base" y="193.6098500484831" /><use class="premise" height="190.0" width="83.0" x="338.50000000000006" xlink:href="#broker.medium" y="188.62292966844643" /><use class="default boundaries" height="190.0" id="5b2c3c41fbff0d12e0f4c3f9" width="100" x="330.00000000000006" xlink:href="#boundaries_box.front" y="193.6098500484831" /><text font-size="16.0" transform="translate(345.00000000000006, 193.6098500484831) skewY(-30.404) skewX(41.0) translate(-480.38000000000005, 30.590149951516878)" x="330.00000000000006" y="193.6098500484831">brokers</text><polyline fill="#ccc" fill-opacity="0.2" points="440.00000000000006,289.7384076007337 490.00000000000006,260.403581835812 540.0,289.7384076007337 490.00000000000006,319.07323336565537" /><use class="default" fill-opacity="0.4" height="190.0" width="100" x="440.00000000000006" xlink:href="#grid.base" y="129.0732333656554" /><use class="premise" height="95.0" width="36.0" x="472.00000000000006" xlink:href="#application.small" y="205.29894487610554" /><use class="default boundaries" height="190.0" id="5b29c216cdff0b10395b3053" width="100" x="440.00000000000006" xlink:href="#boundaries_box.front" y="129.0732333656554" /><text font-size="16.0" transform="translate(455.00000000000006, 129.0732333656554) skewY(-30.404) skewX(41.0) translate(-582.7, 95.12676663434459)" x="440.00000000000006" y="129.0732333656554">app3s</text><polyline fill="#ccc" fill-opacity="0.2" points="0.0,418.8116409663892 50.0,389.4768152014675 650.0000000000001,741.4947243805277 600.0000000000001,770.8295501454494" /><use class="default" fill-opacity="0.4" height="190.0" width="100" x="275.00000000000006" xlink:href="#grid.base" y="419.4880084383801" /><use class="openstack" height="95.0" width="36.0" x="307.00000000000006" xlink:href="#application.large" y="481.0463070663694" /><use class="aws" height="95.0" width="36.0" x="332.00000000000006" xlink:href="#application.micro" y="495.71371994883026" /><use class="default boundaries" height="190.0" id="5b43d57606f9e50f2f36acd0" width="100" x="275.00000000000006" xlink:href="#boundaries_box.front" y="419.4880084383801" /><text font-size="16.0" transform="translate(290.00000000000006, 419.4880084383801) skewY(-30.404) skewX(41.0) translate(-421.5400000000001, -195.28800843838013)" x="275.00000000000006" y="419.4880084383801">appLb1</text><polyline fill="#ccc" fill-opacity="0.2" points="220.00000000000003,418.8116409663892 270.0,389.4768152014675 650.0000000000001,612.4214910148723 600.0000000000001,641.756316779794" /><use class="default" fill-opacity="0.4" height="190.0" width="100" x="385.00000000000006" xlink:href="#grid.base" y="354.95139175555244" /><use class="premise" height="95.0" width="36.0" x="417.00000000000006" xlink:href="#application.small" y="431.1771032660026" /><use class="default boundaries" height="190.0" id="5b43f85506f9e50f2f36acd6" width="100" x="385.00000000000006" xlink:href="#boundaries_box.front" y="354.95139175555244" /><text font-size="16.0" transform="translate(400.00000000000006, 354.95139175555244) skewY(-30.404) skewX(41.0) translate(-531.5400000000001, -130.75139175555245)" x="385.00000000000006" y="354.95139175555244">bucha1</text><polyline fill="#ccc" fill-opacity="0.2" points="440.00000000000006,418.8116409663892 490.00000000000006,389.4768152014675 760.0000000000001,547.8848743320447 710.0000000000001,577.2197000969663" /><use class="default" fill-opacity="0.4" height="190.0" width="100" x="550.0000000000001" xlink:href="#grid.base" y="322.6830834141386" /><use class="premise" height="190.0" width="83.0" x="558.5000000000001" xlink:href="#default" y="317.6961630341019" /><use class="default boundaries" height="190.0" id="5b43e53306f9e50f2f36acd2" width="100" x="550.0000000000001" xlink:href="#boundaries_box.front" y="322.6830834141386" /><text font-size="16.0" transform="translate(565.0000000000001, 322.6830834141386) skewY(-30.404) skewX(41.0) translate(-685.0200000000001, -98.4830834141386)" x="550.0000000000001" y="322.6830834141386">lb3</text><polyline fill="#ccc" fill-opacity="0.2" points="550.0000000000001,354.2750242835615 600.0000000000001,324.9401985186398 650.0000000000001,354.2750242835615 600.0000000000001,383.60985004848317" /><use class="default" fill-opacity="0.4" height="190.0" width="100" x="550.0000000000001" xlink:href="#grid.base" y="193.60985004848314" /><use class="premise" height="95.0" width="36.0" x="582.0000000000001" xlink:href="#application.small" y="269.83556155893325" /><use class="default boundaries" height="190.0" id="5b43f3e206f9e50f2f36acd5" width="100" x="550.0000000000001" xlink:href="#boundaries_box.front" y="193.60985004848314" /><text font-size="16.0" transform="translate(565.0000000000001, 193.60985004848314) skewY(-30.404) skewX(41.0) translate(-704.2200000000001, 30.59014995151685)" x="550.0000000000001" y="193.60985004848314">appLB3-3</text><polyline fill="#ccc" fill-opacity="0.2" points="660.0000000000001,418.8116409663892 710.0000000000001,389.4768152014675 760.0000000000001,418.8116409663892 710.0000000000001,448.14646673131085" /><use class="default" fill-opacity="0.4" height="190.0" width="100" x="660.0000000000001" xlink:href="#grid.base" y="258.14646673131085" /><use class="premise" height="95.0" width="36.0" x="692.0000000000001" xlink:href="#application.small" y="334.372178241761" /><use class="default boundaries" height="190.0" id="5b43e54206f9e50f2f36acd4" width="100" x="660.0000000000001" xlink:href="#boundaries_box.front" y="258.14646673131085" /><text font-size="16.0" transform="translate(675.0000000000001, 258.14646673131085) skewY(-30.404) skewX(41.0) translate(-814.2200000000001, -33.94646673131086)" x="660.0000000000001" y="258.14646673131085">appLB3-2</text><polyline fill="#ccc" fill-opacity="0.2" points="770.0000000000001,483.34825764921686 820.0000000000001,454.0134318842952 870.0000000000001,483.34825764921686 820.0000000000001,512.6830834141385" /><use class="default" fill-opacity="0.4" height="190.0" width="100" x="770.0000000000001" xlink:href="#grid.base" y="322.68308341413854" /><use class="premise" height="95.0" width="36.0" x="802.0000000000001" xlink:href="#application.small" y="398.9087949245887" /><use class="default boundaries" height="190.0" id="5b43e53f06f9e50f2f36acd3" width="100" x="770.0000000000001" xlink:href="#boundaries_box.front" y="322.68308341413854" /><text font-size="16.0" transform="translate(785.0000000000001, 322.68308341413854) skewY(-30.404) skewX(41.0) translate(-924.2200000000001, -98.48308341413855)" x="770.0000000000001" y="322.68308341413854">appLB3-1</text><polyline fill="#ccc" fill-opacity="0.2" points="660.0000000000001,676.9581076977 710.0000000000001,647.6232819327784 760.0000000000001,676.9581076977 710.0000000000001,706.2929334626217" /><use class="default" fill-opacity="0.4" height="190.0" width="100" x="660.0000000000001" xlink:href="#grid.base" y="516.2929334626217" /><use class="premise" height="95.0" width="36.0" x="692.0000000000001" xlink:href="#application.small" y="592.5186449730718" /><use class="default boundaries" height="190.0" id="5b46c82006f9e50f2f36acd9" width="100" x="660.0000000000001" xlink:href="#boundaries_box.front" y="516.2929334626217" /><text font-size="16.0" transform="translate(675.0000000000001, 516.2929334626217) skewY(-30.404) skewX(41.0) translate(-821.9000000000001, -292.0929334626217)" x="660.0000000000001" y="516.2929334626217">cc-broker2</text></svg>